<svg aria-hidden="true" style="position: absolute; width: 0; height: 0; overflow: hidden;" version="1.1" xmlns="http://www.w3.org/2000/svg" xmlns:xlink="http://www.w3.org/1999/xlink">
<defs>
<symbol id="icon-chevron-left" viewBox="0 0 24 24">
<path d="M15.707 17.293l-5.293-5.293 5.293-5.293c0.391-0.391 0.391-1.024 0-1.414s-1.024-0.391-1.414 0l-6 6c-0.391 0.391-0.391 1.024 0 1.414l6 6c0.391 0.391 1.024 0.391 1.414 0s0.391-1.024 0-1.414z"></path>
</symbol>
<symbol id="icon-chevron-right" viewBox="0 0 24 24">
<path d="M9.707 18.707l6-6c0.391-0.391 0.391-1.024 0-1.414l-6-6c-0.391-0.391-1.024-0.391-1.414 0s-0.391 1.024 0 1.414l5.293 5.293-5.293 5.293c-0.391 0.391-0.391 1.024 0 1.414s1.024 0.391 1.414 0z"></path>
</symbol>
<symbol id="icon-chevrons-left" viewBox="0 0 24 24">
<path d="M11.707 16.293l-4.293-4.293 4.293-4.293c0.391-0.391 0.391-1.024 0-1.414s-1.024-0.391-1.414 0l-5 5c-0.391 0.391-0.391 1.024 0 1.414l5 5c0.391 0.391 1.024 0.391 1.414 0s0.391-1.024 0-1.414zM18.707 16.293l-4.293-4.293 4.293-4.293c0.391-0.391 0.391-1.024 0-1.414s-1.024-0.391-1.414 0l-5 5c-0.391 0.391-0.391 1.024 0 1.414l5 5c0.391 0.391 1.024 0.391 1.414 0s0.391-1.024 0-1.414z"></path>
</symbol>
<symbol id="icon-chevrons-right" viewBox="0 0 24 24">
<path d="M13.707 17.707l5-5c0.391-0.391 0.391-1.024 0-1.414l-5-5c-0.391-0.391-1.024-0.391-1.414 0s-0.391 1.024 0 1.414l4.293 4.293-4.293 4.293c-0.391 0.391-0.391 1.024 0 1.414s1.024 0.391 1.414 0zM6.707 17.707l5-5c0.391-0.391 0.391-1.024 0-1.414l-5-5c-0.391-0.391-1.024-0.391-1.414 0s-0.391 1.024 0 1.414l4.293 4.293-4.293 4.293c-0.391 0.391-0.391 1.024 0 1.414s1.024 0.391 1.414 0z"></path>
</symbol>
<symbol id="icon-user" viewBox="0 0 32 32">
<path d="M31.11 28.336c-0.201-0.133-3.848-2.525-9.273-3.699 1.99-2.521 3.268-5.912 3.811-8.169 0.754-3.128 0.461-9.248-2.543-13.062-1.756-2.229-4.213-3.406-7.105-3.406s-5.349 1.178-7.104 3.406c-3.004 3.813-3.296 9.933-2.543 13.061 0.543 2.257 1.82 5.648 3.811 8.169-5.425 1.174-9.072 3.566-9.272 3.699-0.733 0.488-1.061 1.4-0.805 2.242 0.254 0.845 1.033 1.423 1.913 1.423h28c0.881 0 1.658-0.578 1.914-1.422 0.257-0.842-0.071-1.754-0.804-2.242zM20.267 23.398l-0.326 0.414c-2.385 2.74-5.495 2.74-7.879 0l-0.327-0.414c-2.785-3.529-4.167-8.197-3.572-12.65 0.545-4.279 2.997-8.748 7.837-8.748s7.293 4.47 7.838 8.749c0.593 4.455-0.784 9.118-3.571 12.649zM2 30c0.138-0.092 3.526-2.314 8.586-3.408l2.484-0.537c0.887 0.582 1.86 0.945 2.93 0.945 1.071 0 2.043-0.363 2.93-0.945l2.484 0.537c5.020 1.086 8.396 3.283 8.586 3.408h-28z"></path>
</symbol>
<symbol id="icon-location" viewBox="0 0 32 32">
<path d="M16.002 17.746c3.309 0 6-2.692 6-6s-2.691-6-6-6c-3.309 0-6 2.691-6 6s2.691 6 6 6zM16.002 6.746c2.758 0 5 2.242 5 5s-2.242 5-5 5c-2.758 0-5-2.242-5-5s2.242-5 5-5zM16 0c-6.618 0-12 5.316-12 12.001 0 7 6.001 14.161 10.376 19.194 0.016 0.020 0.718 0.805 1.586 0.805 0.002 0 0.073 0 0.077 0 0.867 0 1.57-0.785 1.586-0.805 4.377-5.033 10.377-12.193 10.377-19.194 0-6.685-5.383-12.001-12.002-12.001zM16.117 29.883c-0.021 0.020-0.082 0.064-0.135 0.098-0.010-0.027-0.084-0.086-0.129-0.133-3.665-4.217-9.853-11.334-9.853-17.847 0-5.514 4.487-10.001 10-10.001 5.516 0 10.002 4.487 10.002 10.002 0 6.512-6.188 13.629-9.885 17.881z"></path>
</symbol>
<symbol id="icon-study" viewBox="0 0 32 32">
<path d="M32 8c0-1.406-0.957-2.608-2.326-2.924l-13.013-3.003c-0.218-0.049-0.44-0.073-0.661-0.073s-0.443 0.024-0.675 0.076l-12.999 3c-1.37 0.316-2.326 1.518-2.326 2.924s0.957 2.608 2.325 2.924l2.675 0.617v8.459c0 2.654 3.038 5 11 5s11-2.346 11-5v-8.459l2.674-0.617c1.369-0.316 2.326-1.518 2.326-2.924zM25 20c0 1.105-3 3-9 3s-9-1.895-9-3v-7.997l8.338 1.924c0.218 0.049 0.441 0.073 0.662 0.073s0.444-0.024 0.674-0.076l8.326-1.921v7.997zM16.225 11.975c-0.075 0.016-0.15 0.025-0.225 0.025s-0.151-0.009-0.225-0.025l-13-3c-0.454-0.105-0.775-0.509-0.775-0.975s0.321-0.87 0.775-0.975l13-3c0.074-0.016 0.149-0.025 0.225-0.025s0.151 0.009 0.225 0.025l13 3c0.453 0.105 0.775 0.509 0.775 0.975s-0.322 0.87-0.775 0.975l-13 3zM29 13c0-0.553 0.447-1 1-1 0.552 0 1 0.447 1 1v9c0 0.553-0.448 1-1 1-0.553 0-1-0.447-1-1v-9zM30 24c1.104 0 2 2.896 2 4s-0.896 2-2 2c-1.105 0-2-0.896-2-2s0.895-4 2-4z"></path>
</symbol>
<symbol id="icon-mail-envelope-closed" viewBox="0 0 32 32">
<path d="M5.315 9.274l7.735 6.726-7.737 6.728c-0.194-0.184-0.313-0.445-0.313-0.735v-11.986c0-0.289 0.121-0.549 0.315-0.733zM27.687 9.272c0.194 0.184 0.313 0.445 0.313 0.735v11.986c0 0.289-0.121 0.549-0.315 0.733l-7.735-6.726 7.737-6.728zM19.202 16.651l7.298 6.349h-20l7.298-6.349 2.702 2.349 2.702-2.349zM6.004 8c-1.107 0-2.004 0.895-2.004 1.994v12.012c0 1.101 0.89 1.994 2.004 1.994h20.993c1.107 0 2.004-0.895 2.004-1.994v-12.012c0-1.101-0.89-1.994-2.004-1.994h-20.993zM16.5 17.7l-10-8.7h20l-10 8.7z"></path>
</symbol>
<symbol id="icon-search" viewBox="0 0 32 32">
<path d="M19.427 20.427c-1.39 0.99-3.090 1.573-4.927 1.573-4.694 0-8.5-3.806-8.5-8.5s3.806-8.5 8.5-8.5c4.694 0 8.5 3.806 8.5 8.5 0 1.837-0.583 3.537-1.573 4.927l5.585 5.585c0.55 0.55 0.546 1.431-0 1.976l-0.023 0.023c-0.544 0.544-1.431 0.546-1.976 0l-5.585-5.585zM14.5 20c3.59 0 6.5-2.91 6.5-6.5s-2.91-6.5-6.5-6.5c-3.59 0-6.5 2.91-6.5 6.5s2.91 6.5 6.5 6.5v0z"></path>
</symbol>
<symbol id="icon-facebook" viewBox="0 0 32 32">
<path fill="#1877f2" style="fill: var(--color1, #1877f2)" d="M31.997 15.999c0-8.836-7.163-15.999-15.999-15.999s-15.999 7.163-15.999 15.999c0 7.985 5.851 14.604 13.499 15.804v-11.18h-4.062v-4.625h4.062v-3.525c0-4.010 2.389-6.225 6.043-6.225 1.75 0 3.581 0.313 3.581 0.313v3.937h-2.017c-1.987 0-2.607 1.233-2.607 2.498v3.001h4.437l-0.709 4.625h-3.728v11.18c7.649-1.2 13.499-7.819 13.499-15.804z"></path>
</symbol>
<symbol id="icon-phone" viewBox="0 0 20 20">
<path d="M20 18.35v0.65c0 0.552-0.448 1-1 1v0h-2c-9.389 0-17-7.611-17-17v0-2c0-0.552 0.448-1 1-1v0h4c0.552 0 1 0.448 1 1v0 4c0 0.56-0.31 1.31-0.7 1.7l-2.14 2.14c1.52 3.6 4.4 6.48 8 8l2.12-2.12c0.4-0.4 1.15-0.71 1.7-0.71h4.020c0.548 0.006 0.99 0.451 0.99 1 0 0 0 0 0 0v0 3.35z"></path>
</symbol>
<symbol id="icon-user1" viewBox="0 0 20 20">
<path d="M5 5c0-2.761 2.239-5 5-5s5 2.239 5 5v0 2c0 2.761-2.239 5-5 5s-5-2.239-5-5v0-2zM0 16.68c2.86-1.685 6.301-2.68 9.974-2.68 0.009 0 0.018 0 0.027 0h-0.001c3.64 0 7.060 0.97 10 2.68v3.32h-20v-3.32z"></path>
</symbol>
<symbol id="icon-office" viewBox="0 0 32 32">
<path d="M0 32h16v-32h-16v32zM10 4h4v4h-4v-4zM10 12h4v4h-4v-4zM10 20h4v4h-4v-4zM2 4h4v4h-4v-4zM2 12h4v4h-4v-4zM2 20h4v4h-4v-4zM18 10h14v2h-14zM18 32h4v-8h6v8h4v-18h-14z"></path>
</symbol>
<symbol id="icon-phone1" viewBox="0 0 32 32">
<path d="M22 20c-2 2-2 4-4 4s-4-2-6-4-4-4-4-6 2-2 4-4-4-8-6-8-6 6-6 6c0 4 4.109 12.109 8 16s12 8 16 8c0 0 6-4 6-6s-6-8-8-6z"></path>
</symbol>
<symbol id="icon-user2" viewBox="0 0 32 32">
<path d="M18 22.082v-1.649c2.203-1.241 4-4.337 4-7.432 0-4.971 0-9-6-9s-6 4.029-6 9c0 3.096 1.797 6.191 4 7.432v1.649c-6.784 0.555-12 3.888-12 7.918h28c0-4.030-5.216-7.364-12-7.918z"></path>
</symbol>
<symbol id="icon-mail2" viewBox="0 0 32 32">
<path d="M26.667 0h-21.333c-2.934 0-5.334 2.4-5.334 5.334v21.332c0 2.936 2.4 5.334 5.334 5.334h21.333c2.934 0 5.333-2.398 5.333-5.334v-21.332c0-2.934-2.399-5.334-5.333-5.334zM26.667 4c0.25 0 0.486 0.073 0.688 0.198l-11.355 9.388-11.355-9.387c0.202-0.125 0.439-0.198 0.689-0.198h21.333zM5.334 28c-0.060 0-0.119-0.005-0.178-0.013l7.051-9.78-0.914-0.914-7.293 7.293v-19.098l12 14.512 12-14.512v19.098l-7.293-7.293-0.914 0.914 7.051 9.78c-0.058 0.008-0.117 0.013-0.177 0.013h-21.333z"></path>
</symbol>
<symbol id="icon-facebook1" viewBox="0 0 32 32">
<path d="M19 6h5v-6h-5c-3.86 0-7 3.14-7 7v3h-4v6h4v16h6v-16h5l1-6h-6v-3c0-0.542 0.458-1 1-1z"></path>
</symbol>
<symbol id="icon-instagram" viewBox="0 0 32 32">
<path d="M16 2.881c4.275 0 4.781 0.019 6.462 0.094 1.563 0.069 2.406 0.331 2.969 0.55 0.744 0.288 1.281 0.638 1.837 1.194 0.563 0.563 0.906 1.094 1.2 1.838 0.219 0.563 0.481 1.412 0.55 2.969 0.075 1.688 0.094 2.194 0.094 6.463s-0.019 4.781-0.094 6.463c-0.069 1.563-0.331 2.406-0.55 2.969-0.288 0.744-0.637 1.281-1.194 1.837-0.563 0.563-1.094 0.906-1.837 1.2-0.563 0.219-1.413 0.481-2.969 0.55-1.688 0.075-2.194 0.094-6.463 0.094s-4.781-0.019-6.463-0.094c-1.563-0.069-2.406-0.331-2.969-0.55-0.744-0.288-1.281-0.637-1.838-1.194-0.563-0.563-0.906-1.094-1.2-1.837-0.219-0.563-0.481-1.413-0.55-2.969-0.075-1.688-0.094-2.194-0.094-6.463s0.019-4.781 0.094-6.463c0.069-1.563 0.331-2.406 0.55-2.969 0.288-0.744 0.638-1.281 1.194-1.838 0.563-0.563 1.094-0.906 1.838-1.2 0.563-0.219 1.412-0.481 2.969-0.55 1.681-0.075 2.188-0.094 6.463-0.094zM16 0c-4.344 0-4.887 0.019-6.594 0.094-1.7 0.075-2.869 0.35-3.881 0.744-1.056 0.412-1.95 0.956-2.837 1.85-0.894 0.888-1.438 1.781-1.85 2.831-0.394 1.019-0.669 2.181-0.744 3.881-0.075 1.713-0.094 2.256-0.094 6.6s0.019 4.887 0.094 6.594c0.075 1.7 0.35 2.869 0.744 3.881 0.413 1.056 0.956 1.95 1.85 2.837 0.887 0.887 1.781 1.438 2.831 1.844 1.019 0.394 2.181 0.669 3.881 0.744 1.706 0.075 2.25 0.094 6.594 0.094s4.888-0.019 6.594-0.094c1.7-0.075 2.869-0.35 3.881-0.744 1.050-0.406 1.944-0.956 2.831-1.844s1.438-1.781 1.844-2.831c0.394-1.019 0.669-2.181 0.744-3.881 0.075-1.706 0.094-2.25 0.094-6.594s-0.019-4.887-0.094-6.594c-0.075-1.7-0.35-2.869-0.744-3.881-0.394-1.063-0.938-1.956-1.831-2.844-0.887-0.887-1.781-1.438-2.831-1.844-1.019-0.394-2.181-0.669-3.881-0.744-1.712-0.081-2.256-0.1-6.6-0.1v0z"></path>
<path d="M16 7.781c-4.537 0-8.219 3.681-8.219 8.219s3.681 8.219 8.219 8.219 8.219-3.681 8.219-8.219c0-4.537-3.681-8.219-8.219-8.219zM16 21.331c-2.944 0-5.331-2.387-5.331-5.331s2.387-5.331 5.331-5.331c2.944 0 5.331 2.387 5.331 5.331s-2.387 5.331-5.331 5.331z"></path>
<path d="M26.462 7.456c0 1.060-0.859 1.919-1.919 1.919s-1.919-0.859-1.919-1.919c0-1.060 0.859-1.919 1.919-1.919s1.919 0.859 1.919 1.919z"></path>
</symbol>
<symbol id="icon-whatsapp" viewBox="0 0 32 32">
<path d="M27.281 4.65c-2.994-3-6.975-4.65-11.219-4.65-8.738 0-15.85 7.112-15.85 15.856 0 2.794 0.731 5.525 2.119 7.925l-2.25 8.219 8.406-2.206c2.319 1.262 4.925 1.931 7.575 1.931h0.006c0 0 0 0 0 0 8.738 0 15.856-7.113 15.856-15.856 0-4.238-1.65-8.219-4.644-11.219zM16.069 29.050v0c-2.369 0-4.688-0.637-6.713-1.837l-0.481-0.288-4.987 1.306 1.331-4.863-0.313-0.5c-1.325-2.094-2.019-4.519-2.019-7.012 0-7.269 5.912-13.181 13.188-13.181 3.519 0 6.831 1.375 9.319 3.862 2.488 2.494 3.856 5.8 3.856 9.325-0.006 7.275-5.919 13.188-13.181 13.188zM23.294 19.175c-0.394-0.2-2.344-1.156-2.706-1.288s-0.625-0.2-0.894 0.2c-0.262 0.394-1.025 1.288-1.256 1.556-0.231 0.262-0.462 0.3-0.856 0.1s-1.675-0.619-3.188-1.969c-1.175-1.050-1.975-2.35-2.206-2.744s-0.025-0.613 0.175-0.806c0.181-0.175 0.394-0.463 0.594-0.694s0.262-0.394 0.394-0.662c0.131-0.262 0.069-0.494-0.031-0.694s-0.894-2.15-1.219-2.944c-0.319-0.775-0.65-0.669-0.894-0.681-0.231-0.012-0.494-0.012-0.756-0.012s-0.694 0.1-1.056 0.494c-0.363 0.394-1.387 1.356-1.387 3.306s1.419 3.831 1.619 4.1c0.2 0.262 2.794 4.269 6.769 5.981 0.944 0.406 1.681 0.65 2.256 0.837 0.95 0.3 1.813 0.256 2.494 0.156 0.762-0.113 2.344-0.956 2.675-1.881s0.331-1.719 0.231-1.881c-0.094-0.175-0.356-0.275-0.756-0.475z"></path>
</symbol>
<symbol id="icon-twitter" viewBox="0 0 32 32">
<path d="M32 7.075c-1.175 0.525-2.444 0.875-3.769 1.031 1.356-0.813 2.394-2.1 2.887-3.631-1.269 0.75-2.675 1.3-4.169 1.594-1.2-1.275-2.906-2.069-4.794-2.069-3.625 0-6.563 2.938-6.563 6.563 0 0.512 0.056 1.012 0.169 1.494-5.456-0.275-10.294-2.888-13.531-6.862-0.563 0.969-0.887 2.1-0.887 3.3 0 2.275 1.156 4.287 2.919 5.463-1.075-0.031-2.087-0.331-2.975-0.819 0 0.025 0 0.056 0 0.081 0 3.181 2.263 5.838 5.269 6.437-0.55 0.15-1.131 0.231-1.731 0.231-0.425 0-0.831-0.044-1.237-0.119 0.838 2.606 3.263 4.506 6.131 4.563-2.25 1.762-5.075 2.813-8.156 2.813-0.531 0-1.050-0.031-1.569-0.094 2.913 1.869 6.362 2.95 10.069 2.95 12.075 0 18.681-10.006 18.681-18.681 0-0.287-0.006-0.569-0.019-0.85 1.281-0.919 2.394-2.075 3.275-3.394z"></path>
</symbol>
</defs>
</svg>
